<svg width="46" height="48" viewBox="0 0 46 48" fill="none" xmlns="http://www.w3.org/2000/svg">
<path d="M21.7608 1.6424L21.6448 1.75838H20.7169L20.6009 1.87437H20.021L19.905 1.99036H19.557L19.4411 2.10634H19.0931L18.9771 2.22233H18.6291L18.5132 2.33832H18.2812L18.1652 2.4543H17.9332L17.8172 2.57029H17.7012L17.5853 2.68628H17.3533L17.2373 2.80227H17.1213L17.0053 2.91825H16.8893L16.7734 3.03424H16.6574L16.5414 3.15023H16.4254L16.3094 3.26621H16.1934L16.0774 3.3822H15.9614L15.8455 3.49819H15.7295L15.6135 3.61418H15.4975L15.2655 3.84615H15.1495L14.9176 4.07812H14.8016L14.5696 4.3101H14.4536L14.1056 4.65806H13.9897L13.4097 5.238H13.2937L12.0179 6.51385V6.62984L11.5539 7.09379V7.20978L11.206 7.55774V7.67372L10.858 8.02169V8.13767L10.742 8.25366V8.36965L10.51 8.60162V8.71761L10.3941 8.8336V8.94958L10.1621 9.18156V9.41353L9.93011 9.6455V9.76149L9.81413 9.87748V10.1095L9.69814 10.2254V10.3414L9.58215 10.4574V10.5734L9.46616 10.6894V10.9214L9.35018 11.0374V11.2693L9.23419 11.3853V11.6173L9.1182 11.7333V11.9652L9.00221 12.0812V12.4292L8.88623 12.5452V12.8931L8.77024 13.0091V13.5891L8.65425 13.7051V14.285L8.53827 14.401V16.2568L8.42228 16.3728H8.30629L8.07432 16.1408H7.95833L7.61037 15.7928H7.49438L7.3784 15.6768H7.26241L7.03043 15.4449H6.91445L6.68247 15.2129H6.56649L6.4505 15.0969H6.33451L6.10254 14.8649H5.98655L5.87056 14.7489H5.75458L5.63859 14.633H5.5226L5.40661 14.517H5.29063L5.17464 14.401H5.05865L4.94267 14.285H4.82668L4.71069 14.169H4.24674L4.13076 14.053H3.89878L3.7828 14.169H3.31885L3.20286 14.285H2.97089L2.73891 14.517H2.62292L1.927 15.2129V15.3289L1.81101 15.4449V15.6768L1.69503 15.7928V16.0248L1.57904 16.1408V16.8367L1.69503 16.9527V17.3007L1.81101 17.4166V17.5326L1.927 17.6486V17.7646L2.15898 17.9966V18.1126L2.39095 18.3445H2.50694L3.20286 19.0405H3.31885L6.10254 21.8242V21.9401L6.79846 22.6361V22.752L7.14642 23.1V23.216L7.61037 23.6799V23.7959L7.84234 24.0279V24.1439L7.95833 24.2599V24.8398L7.84234 24.9558V25.6517L7.72636 25.7677V26.4636L7.61037 26.5796V27.0436L7.49438 27.1596V27.8555L7.3784 27.9715V28.4354L7.26241 28.5514V29.0154L7.14642 29.1313V29.5953L7.03043 29.7113V30.1752L6.91445 30.2912V30.6392L6.79846 30.7552V31.2191L6.68247 31.3351V31.6831L6.56649 31.799V32.147L6.4505 32.263V32.611L6.33451 32.7269V33.0749L6.21852 33.1909V33.5388L6.10254 33.6548V34.0028L5.98655 34.1188V34.4667L5.87056 34.5827V34.9307L5.75458 35.0467V35.3946L5.63859 35.5106V35.9746L5.5226 36.0906V36.3225L5.40661 36.4385V36.7865L5.29063 36.9025V37.3664L5.17464 37.4824V37.7144L5.05865 37.8304V38.2943L4.94267 38.4103V38.7583L4.82668 38.8743V39.2222L4.71069 39.3382V39.4542L4.82668 39.5702V39.6862L5.05865 39.9181H5.5226L5.63859 40.0341H6.21852L6.33451 40.1501H6.79846L6.91445 40.2661H7.49438L7.61037 40.3821H7.95833L8.07432 40.4981H8.19031L8.30629 40.6141H8.42228L8.65425 40.846H8.77024L9.35018 41.426V41.542L9.58215 41.7739V41.8899L9.69814 42.0059V42.1219L9.93011 42.3539V42.4699L10.742 43.2818H10.858L11.09 43.5137H11.206L11.322 43.6297H11.4379L11.5539 43.7457H11.6699L11.7859 43.8617H12.0179L12.1339 43.9777H12.4818L12.5978 44.0937H13.9897L14.1056 43.9777H14.9176L15.0335 44.0937H15.3815L15.4975 44.2097H15.7295L15.9614 44.4416H16.0774L16.3094 44.6736H16.4254L17.2373 45.4855H17.3533L17.4693 45.6015H17.5853L17.7012 45.7175H17.8172L17.9332 45.8335H18.0492L18.1652 45.9495H18.3972L18.5132 46.0655H20.6009L20.7169 45.9495H20.9489L21.0649 45.8335H21.2968L21.4128 45.7175H21.5288L21.6448 45.6015H21.7608L21.8768 45.4855H22.2247L22.3407 45.3695H23.3846L23.5006 45.4855H23.8486L23.9646 45.6015H24.0805L24.1965 45.7175H24.3125L24.4285 45.8335H24.6605L24.7765 45.9495H25.0084L25.1244 46.0655H27.2122L27.3282 45.9495H27.5602L27.6761 45.8335H27.7921L27.9081 45.7175H28.0241L28.1401 45.6015H28.2561L28.3721 45.4855H28.488L29.184 44.7896H29.3L29.6479 44.4416H29.7639L29.9959 44.2097H30.2279L30.3438 44.0937H30.6918L30.8078 43.9777H31.6197L31.7357 44.0937H33.1275L33.2435 43.9777H33.5915L33.7075 43.8617H33.9394L34.0554 43.7457H34.1714L34.2874 43.6297H34.4034L34.5194 43.5137H34.6354L34.8673 43.2818H34.9833L35.7952 42.4699V42.3539L36.0272 42.1219V42.0059L36.1432 41.8899V41.7739L36.3752 41.542V41.426L36.9551 40.846H37.0711L37.3031 40.6141H37.4191L37.535 40.4981H37.651L37.767 40.3821H38.115L38.231 40.2661H38.8109L38.9269 40.1501H39.3908L39.5068 40.0341H40.0868L40.2027 39.9181H40.6667L40.8987 39.6862V39.5702L41.0147 39.4542V39.3382L40.8987 39.2222V38.8743L40.7827 38.7583V38.4103L40.6667 38.2943V37.8304L40.5507 37.7144V37.4824L40.4347 37.3664V36.9025L40.3187 36.7865V36.4385L40.2027 36.3225V36.0906L40.0868 35.9746V35.5106L39.9708 35.3946V35.0467L39.8548 34.9307V34.5827L39.7388 34.4667V34.1188L39.6228 34.0028V33.6548L39.5068 33.5388V33.1909L39.3908 33.0749V32.7269L39.2748 32.611V32.263L39.1589 32.147V31.799L39.0429 31.6831V31.2191L38.9269 31.1031V30.7552L38.8109 30.6392V30.2912L38.6949 30.1752V29.7113L38.5789 29.5953V29.1313L38.4629 29.0154V28.5514L38.347 28.4354V27.9715L38.231 27.8555V27.1596L38.115 27.0436V26.5796L37.999 26.4636V25.7677L37.883 25.6517V24.9558L37.767 24.8398V24.2599L37.883 24.1439V24.0279L38.115 23.7959V23.6799L38.5789 23.216V23.1L38.9269 22.752V22.6361L39.6228 21.9401V21.8242L42.4065 19.0405H42.5225L43.2184 18.3445H43.3344L43.5664 18.1126V17.9966L43.7983 17.7646V17.6486L43.9143 17.5326V17.4166L44.0303 17.3007V16.9527L44.1463 16.8367V16.2568L44.0303 16.1408V15.7928L43.9143 15.6768V15.4449L43.6824 15.2129V15.0969L43.1024 14.517H42.9864L42.8704 14.401H42.7545L42.6385 14.285H42.5225L42.4065 14.169H41.0147L40.8987 14.285H40.7827L40.6667 14.401H40.5507L40.4347 14.517H40.3187L40.2027 14.633H40.0868L39.9708 14.7489H39.8548L39.6228 14.9809H39.5068L39.3908 15.0969H39.2748L39.1589 15.2129H39.0429L38.8109 15.4449H38.6949L38.4629 15.6768H38.347L38.231 15.7928H38.115L37.767 16.1408H37.651L37.4191 16.3728H37.3031L37.1871 16.2568V14.401L37.0711 14.285V13.7051L36.9551 13.5891V13.0091L36.8391 12.8931V12.5452L36.7231 12.4292V12.0812L36.6071 11.9652V11.7333L36.4912 11.6173V11.3853L36.3752 11.2693V11.0374L36.2592 10.9214V10.6894L36.1432 10.5734V10.4574L36.0272 10.3414V10.2254L35.9112 10.1095V9.87748L35.7952 9.76149V9.6455L35.6792 9.52952V9.41353L35.5633 9.29754V9.18156L35.3313 8.94958V8.8336L35.2153 8.71761V8.60162L34.9833 8.36965V8.25366L34.8673 8.13767V8.02169L34.5194 7.67372V7.55774L34.1714 7.20978V7.09379L33.7075 6.62984V6.51385L32.3156 5.12201H32.1996L31.7357 4.65806H31.6197L31.2717 4.3101H31.1558L30.9238 4.07812H30.8078L30.5758 3.84615H30.4598L30.2279 3.61418H30.1119L29.9959 3.49819H29.8799L29.7639 3.3822H29.6479L29.5319 3.26621H29.4159L29.3 3.15023H29.184L29.068 3.03424H28.952L28.836 2.91825H28.72L28.604 2.80227H28.488L28.3721 2.68628H28.1401L28.0241 2.57029H27.9081L27.7921 2.4543H27.5602L27.4442 2.33832H27.2122L27.0962 2.22233H26.7482L26.6323 2.10634H26.2843L26.1683 1.99036H25.8203L25.7044 1.87437H25.2404L25.1244 1.75838H24.0805L23.9646 1.6424H21.7608Z" fill="white" stroke="black" stroke-width="2"/>
<path d="M27.5063 12.9505C27.5063 14.0051 26.7983 14.7123 26.0925 14.7123C25.3867 14.7123 24.6787 14.0051 24.6787 12.9505C24.6787 11.896 25.3867 11.1888 26.0925 11.1888C26.7983 11.1888 27.5063 11.896 27.5063 12.9505Z" fill="#0B0D11" stroke="black"/>
<path d="M19.8511 12.9505C19.8511 14.0051 19.1431 14.7123 18.4373 14.7123C17.7316 14.7123 17.0236 14.0051 17.0236 12.9505C17.0236 11.896 17.7316 11.1888 18.4373 11.1888C19.1431 11.1888 19.8511 11.896 19.8511 12.9505Z" fill="#0B0D11" stroke="black"/>
</svg>
